<svg xmlns="http://www.w3.org/2000/svg" width="400" height="162" viewBox="0 0 400 162" fill="none"> <path d="M127.438 127.519L39.6291 126.223L127.438 124.927V127.519Z" fill="#789904"></path> <path d="M258.42 124.927L346.236 126.223L258.42 127.519V124.927Z" fill="#789904"></path> <path d="M39.5032 58.7996C48.7167 59.3633 54.2275 65.1039 54.2275 70.514C54.2275 74.246 51.6509 76.8572 48.2199 76.8572C44.7889 76.8572 42.2123 74.1489 42.2123 70.8833C42.2123 67.8964 44.312 65.4732 47.2661 65.0067C46.2196 62.2983 43.5635 59.5252 39.5695 58.819L39.5032 58.7996Z" fill="#789904"></path> <path d="M133.711 114.152H152.072V118.869H139.016V123.89H150.522V128.607H139.016V137.737H133.711V114.152ZM154.953 126.016V125.951C154.953 119.245 159.709 113.757 166.259 113.757C172.803 113.757 177.506 119.18 177.506 125.886V125.951C177.506 132.657 172.751 138.151 166.2 138.151C159.656 138.145 154.953 132.722 154.953 126.016ZM172.625 126.016V125.951C172.625 121.908 169.955 118.539 166.2 118.539C162.444 118.539 159.834 121.843 159.834 125.886V125.951C159.834 129.994 162.504 133.363 166.259 133.363C170.022 133.357 172.625 130.059 172.625 126.016ZM181.123 126.016V125.951C181.123 119.245 185.879 113.757 192.429 113.757C198.98 113.757 203.676 119.18 203.676 125.886V125.951C203.676 132.657 198.92 138.151 192.37 138.151C185.826 138.145 181.123 132.722 181.123 126.016ZM198.795 126.016V125.951C198.795 121.908 196.125 118.539 192.37 118.539C188.614 118.539 186.004 121.843 186.004 125.886V125.951C186.004 129.994 188.674 133.363 192.429 133.363C196.191 133.357 198.795 130.059 198.795 126.016ZM208.531 114.152H217.937C225.514 114.152 230.747 119.238 230.747 125.88V125.944C230.747 132.586 225.514 137.737 217.937 137.737H208.531V114.152ZM213.83 118.837V133.052H217.93C222.269 133.052 225.196 130.188 225.196 126.009V125.944C225.196 121.765 222.269 118.837 217.93 118.837H213.83ZM233.933 134.303L237.066 130.629C239.238 132.378 241.51 133.493 244.266 133.493C246.438 133.493 247.743 132.65 247.743 131.27V131.206C247.743 129.89 246.915 129.216 242.888 128.206C238.033 126.994 234.9 125.679 234.9 120.994V120.929C234.9 116.653 238.41 113.822 243.338 113.822C246.849 113.822 249.849 114.897 252.293 116.822L249.538 120.729C247.405 119.277 245.299 118.402 243.272 118.402C241.239 118.402 240.172 119.31 240.172 120.456V120.521C240.172 122.07 241.206 122.575 245.372 123.618C250.26 124.862 253.015 126.586 253.015 130.694V130.758C253.015 135.443 249.366 138.067 244.166 138.067C240.51 138.074 236.827 136.83 233.933 134.303Z" fill="#789904"></path> <path d="M39.1787 58.78C38.7945 58.7606 38.4037 58.7541 38.0063 58.7541C26.7528 58.7541 16.5458 66.4061 16.5458 79.0925C16.5458 89.8222 23.8914 98.8738 36.6749 98.8738C46.7892 98.8738 52.2206 93.185 54.8965 88.4227L54.3202 88.1441C51.7437 92.8092 47.0674 96.917 40.8743 96.917C32.767 96.917 27.998 89.9194 27.998 78.0688C27.998 68.7386 31.3098 59.8167 39.2515 58.793L39.1787 58.78ZM56.1749 97.2151C61.328 97.2151 62.8515 95.4398 62.8515 90.7747V44.3118C62.8515 39.6467 61.328 37.8714 56.1749 37.8714V37.3206L73.7274 35.4546V90.7812C73.7274 95.4462 75.2509 97.2216 80.404 97.2216V97.7788H56.1749V97.2151ZM82.1593 78.6519C82.1593 66.8985 91.0283 58.6828 102.858 58.6828C113.257 58.6828 121.364 64.9353 121.649 76.598H93.6115C93.3267 89.0058 97.9964 96.8458 106.965 96.8458C113.833 96.8458 118.503 92.09 120.987 88.0728L121.557 88.4486C118.695 92.9258 113.357 98.8025 102.865 98.8025C89.3128 98.8025 82.1593 89.1937 82.1593 78.6519ZM93.6049 75.7557H110.488C110.488 70.9027 109.819 59.3372 102.765 59.3372C96.8438 59.3372 93.9824 67.8251 93.6049 75.7557ZM127.18 88.1635C127.18 80.6994 134.333 77.4338 143.01 77.4338C146.733 77.4338 150.734 78.0882 153.694 79.0213V69.6004C153.694 63.6265 151.979 59.2465 145.494 59.2465C140.818 59.2465 138.248 61.4883 136.625 63.9116C138.917 64.7539 140.44 66.9892 140.44 69.3218C140.44 72.4966 137.963 74.9199 134.625 74.9199C131.002 74.9199 128.902 71.9329 128.902 68.946C128.902 63.4386 135.864 58.6828 145.978 58.6828C154.847 58.6828 164.577 62.4149 164.577 72.5873V93.1137C164.577 95.6341 165.816 96.3793 167.246 96.3793C170.2 96.3793 172.585 92.8351 173.638 90.9691L174.208 91.3448C172.015 94.9862 168.962 98.6211 163.146 98.6211C158.284 98.6211 155.039 96.1006 154.085 92.2779C151.608 95.6341 147.501 98.809 140.447 98.809C132.519 98.8025 127.18 94.6946 127.18 88.1635ZM153.694 91.617V79.7664C151.694 79.2092 149.309 78.5548 146.925 78.5548C141.586 78.5548 138.434 81.5417 138.434 87.7942C138.434 93.1137 140.818 96.5671 145.203 96.5671C148.641 96.5607 151.502 94.416 153.694 91.617ZM172.77 97.2151C177.923 97.2151 179.447 95.2583 179.447 90.5933V67.8251C179.447 63.16 177.923 61.2032 172.77 61.2032V60.646L190.131 58.78V70.9092C192.323 64.6567 196.9 58.6893 202.815 58.6893C207.2 58.6893 209.399 61.8641 209.399 65.0325C209.399 68.486 206.63 71.1878 203.292 71.1878C199.669 71.1878 196.708 68.2009 197.185 64.3781C194.039 65.499 191.654 68.486 190.316 71.5636V90.5997C190.316 95.5434 192.317 97.2216 197.47 97.2216V97.7788H172.77V97.2151ZM211.207 97.2151C216.36 97.2151 218.838 95.7248 218.838 90.5933V60.8274H210.73V59.7065H218.838V52.8968C218.838 41.7006 226.945 36.2904 236.198 36.2904C245.736 36.2904 250.313 41.8885 250.313 46.5536C250.313 50.0978 247.644 52.4303 244.59 52.4303C241.345 52.4303 238.867 49.8191 238.867 46.6443C238.867 43.8453 240.682 41.6034 243.252 40.9555C242.298 38.623 240.391 36.8476 237.245 36.8476C232.191 36.8476 229.707 41.5127 229.707 48.0438V59.7065H240.484V60.8274H229.707V90.5933C229.707 96.3793 232.952 97.2151 238.099 97.2151V97.7723H211.201V97.2151H211.207ZM240.748 78.7427C240.748 65.959 251.148 58.6828 262.494 58.6828C273.84 58.6828 284.239 65.959 284.239 78.7427C284.239 91.5263 273.84 98.8025 262.494 98.8025C251.148 98.8025 240.748 91.5263 240.748 78.7427ZM272.601 78.7427C272.601 67.08 269.74 59.4279 262.494 59.4279C255.248 59.4279 252.479 67.08 252.479 78.7427C252.479 90.4961 255.248 98.0574 262.494 98.0574C269.74 98.0574 272.601 90.4961 272.601 78.7427ZM286.716 97.2151C291.87 97.2151 293.393 95.2583 293.393 90.5933V67.8251C293.393 63.16 291.87 61.2032 286.716 61.2032V60.646L304.077 58.78V70.9092C306.269 64.6567 310.846 58.6893 316.761 58.6893C321.146 58.6893 323.345 61.8641 323.345 65.0325C323.345 68.486 320.576 71.1878 317.238 71.1878C313.615 71.1878 310.654 68.2009 311.131 64.3781C307.985 65.499 305.6 68.486 304.262 71.5636V90.5997C304.262 95.5434 306.263 97.2216 311.416 97.2216V97.7788H286.716V97.2151ZM323.053 97.2151C328.207 97.2151 329.73 95.4398 329.73 90.7747V44.3118C329.73 39.6467 328.207 37.8714 323.053 37.8714V37.3206L340.606 35.4546V81.3603L349.574 72.5873C353.39 68.946 355.39 66.1469 355.39 63.9116C355.39 61.6762 353.39 60.3674 349.098 60.3674V59.713H371.32V60.3674C366.643 60.3674 363.212 61.7669 359.682 64.3781C357.582 65.8683 355.198 67.8316 352.244 70.8185L351.29 71.7515L364.736 91.3448C367.312 95.0769 370.174 97.2216 374.181 97.2216V97.7788H356.728L343.759 79.2092L340.613 82.2868V90.7747C340.613 95.4398 342.136 97.2151 347.289 97.2151V97.7723H323.06V97.2151H323.053Z" fill="white"></path> </svg>